
nColumns=19
nRows=75
DataType=double
version=3
OpenSimVersion=4.4-2022-10-11-798caa840
endheader
time	ground_force_calcn_r_vx	ground_force_calcn_r_vy	ground_force_calcn_r_vz	ground_force_calcn_r_px	ground_force_calcn_r_py	ground_force_calcn_r_pz	ground_force_calcn_r_mx	ground_force_calcn_r_my	ground_force_calcn_r_mz	ground_force_calcn_l_vx	ground_force_calcn_l_vy	ground_force_calcn_l_vz	ground_force_calcn_l_px	ground_force_calcn_l_py	ground_force_calcn_l_pz	ground_force_calcn_l_mx	ground_force_calcn_l_my	ground_force_calcn_l_mz
10.11	3.55094	420.466	-55.2056	-0.25608	0	-0.441837	-0.00908581	-1.07585	0.141255	-14.2064	412.924	59.544	-0.232372	0	-0.878621	-0.0568563	1.65259	0.238305
10.12	2.90963	417.5	-55.7113	-0.253165	0	-0.440738	-0.00741636	-1.06417	0.142003	-14.3089	409.396	59.9979	-0.230474	0	-0.879177	-0.0566321	1.62032	0.237461
10.13	2.28733	414.446	-56.0803	-0.250242	0	-0.439648	-0.00575445	-1.04266	0.141086	-14.2921	405.434	60.2944	-0.228656	0	-0.879721	-0.0563744	1.59921	0.237828
10.14	1.68811	411.442	-56.3127	-0.24733	0	-0.438576	-0.00415513	-1.01273	0.138609	-14.1608	401.132	60.4294	-0.226903	0	-0.880253	-0.0561749	1.59126	0.239718
10.15	1.11245	408.637	-56.4155	-0.244449	0	-0.437533	-0.00265755	-0.976198	0.134772	-13.9275	396.611	60.4004	-0.2252	0	-0.880771	-0.0561263	1.5983	0.243407
10.16	0.55559	406.174	-56.4021	-0.241621	0	-0.436528	-0.00127934	-0.935286	0.129876	-13.6089	392.01	60.208	-0.223528	0	-0.8812720000000001	-0.0563078	1.62197	0.249116
10.17	0.008495569999999999	404.181	-56.2919	-0.238858	0	-0.435567	-1.87579e-05	-0.892416	0.12429	-13.225	387.481	59.8575	-0.22187	0	-0.881753	-0.0567799	1.6636	0.256991
10.18	-0.5383	402.765	-56.1102	-0.23617	0	-0.434654	0.00113601	-0.84998	0.118413	-12.7966	383.18	59.3585	-0.220212	0	-0.882213	-0.05758	1.72416	0.26709
10.19	-1.09094	402.009	-55.8874	-0.233566	0	-0.43379	0.0021987	-0.810221	0.112637	-12.3423	379.26	58.7233	-0.218541	0	-0.882647	-0.0587203	1.80439	0.279386
10.2	-1.65174	401.972	-55.6582	-0.231052	0	-0.432975	0.003185	-0.775109	0.107324	-11.8793	375.857	57.968	-0.216854	0	-0.8830519999999999	-0.0601995	1.90469	0.293758
10.21	-2.22113	402.693	-55.4604	-0.228636	0	-0.432207	0.00411677	-0.746375	0.102794	-11.4255	373.095	57.1129	-0.21515	0	-0.883425	-0.0620164	2.02511	0.310002
10.22	-2.799	404.204	-55.3344	-0.22633	0	-0.431483	0.00502519	-0.725687	0.0993445	-10.998	371.076	56.1834	-0.213436	0	-0.883764	-0.0641786	2.16541	0.327857
10.23	-3.38578	406.531	-55.3192	-0.224145	0	-0.430801	0.0059512	-0.714561	0.097235	-10.6128	369.879	55.2103	-0.211724	0	-0.884068	-0.06670769999999999	2.3249	0.347027
10.24	-3.98196	409.693	-55.4486	-0.222097	0	-0.430158	0.00694358	-0.714405	0.0966891	-10.2843	369.556	54.2281	-0.210035	0	-0.884335	-0.06963370000000001	2.50222	0.367172
10.25	-4.58732	413.698	-55.7455	-0.220201	0	-0.429556	0.00805637	-0.726546	0.09790169999999999	-10.0226	370.131	53.2734	-0.20839	0	-0.884567	-0.0729799	2.69512	0.387912
10.26	-5.20097	418.536	-56.22	-0.21847	0	-0.428995	0.009346190000000001	-0.752111	0.101028	-9.83385	371.603	52.3832	-0.206811	0	-0.884767	-0.0767568	2.9005	0.40887
10.27	-5.82261	424.173	-56.8701	-0.216912	0	-0.428477	0.0108703	-0.791894	0.106172	-9.72186	373.945	51.5938	-0.205314	0	-0.884939	-0.0809711	3.1145	0.429713
10.28	-6.45392	430.555	-57.6852	-0.215531	0	-0.428005	0.0126861	-0.846318	0.113389	-9.689970000000001	377.097	50.9383	-0.203912	0	-0.885092	-0.0856391	3.33275	0.450189
10.29	-7.09923	437.601	-58.648	-0.214325	0	-0.427581	0.0148508	-0.9154099999999999	0.122685	-9.74151	380.965	50.4424	-0.202606	0	-0.885232	-0.0907907	3.55059	0.470123
10.3	-7.76448	445.193	-59.7357	-0.213285	0	-0.427204	0.0174203	-0.998828	0.134022	-9.87838	385.417	50.1214	-0.201394	0	-0.885367	-0.0964575	3.76341	0.48941
10.31	-8.454029999999999	453.173	-60.9189	-0.212398	0	-0.426873	0.0204456	-1.09597	0.147329	-10.099	390.29	49.9795	-0.200271	0	-0.885504	-0.102647	3.9669	0.507992
10.32	-9.167299999999999	461.33	-62.1594	-0.211648	0	-0.426586	0.023963	-1.2059	0.162483	-10.3986	395.399	50.0119	-0.199227	0	-0.885649	-0.109332	4.15726	0.525831
10.33	-9.89753	469.424	-63.4122	-0.211016	0	-0.426339	0.0279863	-1.32734	0.179305	-10.7711	400.552	50.2062	-0.198252	0	-0.885806	-0.11647	4.33124	0.542889
10.34	-10.6331	477.206	-64.6309	-0.210489	0	-0.426131	0.0325029	-1.45871	0.197561	-11.2122	405.565	50.5436	-0.197337	0	-0.885976	-0.12403	4.48636	0.559114
10.35	-11.3583	484.451	-65.7736	-0.210059	0	-0.425961	0.0374661	-1.59799	0.216959	-11.7194	410.268	51.0002	-0.196475	0	-0.8861599999999999	-0.132002	4.62105	0.57444
10.36	-12.0519	490.976	-66.80719999999999	-0.209723	0	-0.425826	0.0427836	-1.74294	0.237162	-12.29	414.521	51.5487	-0.195666	0	-0.886355	-0.140374	4.73456	0.588776
10.37	-12.6875	496.658	-67.7084	-0.209485	0	-0.425729	0.0483093	-1.89109	0.257809	-12.9194	418.22	52.1611	-0.194917	0	-0.886557	-0.149108	4.82683	0.602011
10.38	-13.2355	501.426	-68.4637	-0.209356	0	-0.425668	0.0538482	-2.04004	0.278543	-13.6001	421.295	52.8112	-0.19424	0	-0.886758	-0.158125	4.8983	0.614023
10.39	-13.6664	505.261	-69.0664	-0.20935	0	-0.425648	0.0591718	-2.18764	0.299038	-14.3218	423.716	53.4766	-0.19365	0	-0.886955	-0.167305	4.94978	0.624705
10.4	-13.9547	508.18	-69.5136	-0.209479	0	-0.425669	0.0640421	-2.33219	0.319018	-15.0705	425.488	54.1403	-0.193168	0	-0.887138	-0.176471	4.98233	0.6339669999999999
10.41	-14.0805	510.232	-69.8047	-0.209753	0	-0.425733	0.0682315	-2.47248	0.338259	-15.8277	426.654	54.7909	-0.192823	0	-0.887303	-0.185381	4.99715	0.6417350000000001
10.42	-14.0314	511.489	-69.9406	-0.210182	0	-0.425845	0.0715382	-2.6078	0.356588	-16.5683	427.291	55.4214	-0.192642	0	-0.88744	-0.193712	4.99575	0.64797
10.43	-13.8023	512.051	-69.92619999999999	-0.210767	0	-0.426003	0.07379810000000001	-2.73784	0.373882	-17.2618	427.506	56.0262	-0.192659	0	-0.887541	-0.201088	4.98014	0.652666
10.44	-13.3956	512.032	-69.7717	-0.21151	0	-0.426209	0.0748861	-2.86244	0.390049	-17.8747	427.423	56.6004	-0.19291	0	-0.887598	-0.207121	4.95271	0.655849
10.45	-12.8191	511.564	-69.4945	-0.212408	0	-0.426464	0.07471129999999999	-2.98145	0.405022	-18.3741	427.169	57.1381	-0.193421	0	-0.8876039999999999	-0.21146	4.9161	0.657577
10.46	-12.0856	510.778	-69.1182	-0.213454	0	-0.426764	0.0732199	-3.09453	0.418749	-18.7299	426.862	57.6336	-0.194215	0	-0.887551	-0.213822	4.87308	0.657949
10.47	-11.2125	509.801	-68.6698	-0.214637	0	-0.427107	0.0704038	-3.20106	0.43118	-18.9158	426.599	58.0811	-0.195303	0	-0.887435	-0.214	4.82624	0.657089
10.48	-10.2223	508.741	-68.1776	-0.215944	0	-0.427489	0.0663113	-3.30017	0.442264	-18.9095	426.452	58.4764	-0.196687	0	-0.887254	-0.211852	4.77774	0.655138
10.49	-9.14099	507.681	-67.6679	-0.21736	0	-0.427906	0.0610572	-3.39106	0.451988	-18.6945	426.465	58.8169	-0.19836	0	-0.88701	-0.207312	4.72928	0.65225
10.5	-7.99764	506.678	-67.16370000000001	-0.218868	0	-0.428351	0.0548221	-3.47317	0.460392	-18.2609	426.662	59.1019	-0.200306	0	-0.886706	-0.2004	4.68231	0.648602
10.51	-6.823	505.76	-66.6827	-0.220449	0	-0.42882	0.0478433	-3.54642	0.467583	-17.6065	427.051	59.3323	-0.202507	0	-0.886345	-0.191219	4.63807	0.644389
10.52	-5.6488	504.933	-66.2371	-0.222082	0	-0.429306	0.0404004	-3.6113	0.47373	-16.7361	427.636	59.5112	-0.204935	0	-0.885937	-0.179928	4.59747	0.639799
10.53	-4.50577	504.182	-65.8323	-0.223747	0	-0.429802	0.0327874	-3.66881	0.479047	-15.6622	428.418	59.6441	-0.207561	0	-0.885485	-0.166745	4.56106	0.634988
10.54	-3.42116	503.479	-65.4679	-0.225421	0	-0.430302	0.0252789	-3.7202	0.483741	-14.4062	429.4	59.7389	-0.210349	0	-0.884996	-0.15194	4.52883	0.630059
10.55	-2.41712	502.797	-65.1395	-0.227083	0	-0.4308	0.0181077	-3.76667	0.487988	-12.9981	430.586	59.8058	-0.213259	0	-0.884479	-0.135848	4.50023	0.625053
10.56	-1.50945	502.106	-64.842	-0.228712	0	-0.431289	0.0114515	-3.80927	0.491929	-11.476	431.979	59.8568	-0.216247	0	-0.883941	-0.118866	4.47431	0.61998
10.57	-0.707547	501.382	-64.5712	-0.230288	0	-0.431764	0.00543133	-3.84875	0.495667	-9.88368	433.573	59.906	-0.219265	0	-0.883392	-0.101443	4.45008	0.614859
10.58	-0.0148998	500.597	-64.3233	-0.231792	0	-0.432219	0.000115648	-3.8855	0.49926	-8.266909999999999	435.359	59.9683	-0.222268	0	-0.882842	-0.0840548	4.42657	0.609734
10.59	0.57003	499.724	-64.0942	-0.233204	0	-0.432645	-0.00447121	-3.91974	0.5027430000000001	-6.67056	437.316	60.0562	-0.225206	0	-0.882301	-0.06716229999999999	4.40309	0.604674
10.6	1.05211	498.734	-63.8792	-0.234507	0	-0.433037	-0.00833622	-3.95162	0.506135	-5.13624	439.411	60.1779	-0.228039	0	-0.881778	-0.0511889	4.37927	0.599746
10.61	1.43815	497.604	-63.6732	-0.235691	0	-0.43339	-0.0115065	-3.98127	0.509442	-3.70038	441.608	60.3346	-0.230728	0	-0.88128	-0.0364914	4.35493	0.594992
10.62	1.73588	496.32	-63.4705	-0.236743	0	-0.433702	-0.0140207	-4.00879	0.512653	-2.39267	443.868	60.5211	-0.233243	0	-0.880817	-0.0233421	4.33023	0.590425
10.63	1.95361	494.872	-63.2642	-0.237659	0	-0.433971	-0.0159255	-4.03411	0.51572	-1.2348	446.16	60.7263	-0.235557	0	-0.8803879999999999	-0.0119166	4.30573	0.586047
10.64	2.10051	493.251	-63.0459	-0.238437	0	-0.434198	-0.0172767	-4.05701	0.518554	-0.240133	448.462	60.9358	-0.237653	0	-0.880001	-0.00229305	4.2824	0.581881
10.65	2.18502	491.456	-62.8062	-0.239078	0	-0.434387	-0.0181268	-4.0771	0.521038	0.586114	450.762	61.1357	-0.239522	0	-0.879655	0.00554112	4.2615	0.577977
10.66	2.21359	489.481	-62.535	-0.23959	0	-0.43454	-0.0185142	-4.09396	0.523034	1.24625	453.048	61.3136	-0.241159	0	-0.879351	0.0116757	4.24443	0.574422
10.67	2.19123	487.32	-62.2207	-0.239979	0	-0.434663	-0.018468	-4.1072	0.524406	1.74873	455.313	61.4593	-0.242567	0	-0.879087	0.0162569	4.23278	0.57135
10.68	2.1219	484.95	-61.8498	-0.240255	0	-0.434762	-0.0180118	-4.1165	0.525013	2.1067	457.543	61.5649	-0.243752	0	-0.878862	0.0194681	4.22818	0.568925
10.69	2.00947	482.337	-61.4071	-0.24043	0	-0.434842	-0.017171	-4.1216	0.5247270000000001	2.33708	459.717	61.6242	-0.244721	0	-0.878673	0.0215155	4.23221	0.56732
10.7	1.85834	479.425	-60.8756	-0.240516	0	-0.434909	-0.0159787	-4.12228	0.523432	2.4594	461.8	61.6326	-0.245482	0	-0.878522	0.0226141	4.24625	0.56671
10.71	1.67426	476.139	-60.2372	-0.240525	0	-0.434971	-0.0144815	-4.11837	0.521022	2.4947	463.743	61.5857	-0.246047	0	-0.878405	0.0229779	4.27138	0.567246
10.72	1.46504	472.394	-59.4734	-0.240472	0	-0.435034	-0.0127452	-4.10962	0.517392	2.46408	465.476	61.4794	-0.246425	0	-0.8783260000000001	0.0228071	4.30837	0.569044
10.73	1.24056	468.094	-58.5672	-0.240371	0	-0.435103	-0.0108546	-4.09572	0.51245	2.38692	466.91	61.3087	-0.246625	0	-0.878286	0.0222768	4.3576	0.572186
10.74	1.01144	463.142	-57.5052	-0.240236	0	-0.435186	-0.00890206	-4.07631	0.506127	2.27901	467.934	61.0688	-0.24665	0	-0.878285	0.0215216	4.4189	0.576698
10.75	0.787903	457.45	-56.2789	-0.240085	0	-0.435287	-0.00697739	-4.05101	0.498386	2.15035	468.422	60.7553	-0.246502	0	-0.878325	0.0206184	4.4914	0.582544
10.76	0.579657	450.942	-54.886	-0.239931	0	-0.435409	-0.00516693	-4.0196	0.489242	2.00352	468.236	60.3652	-0.24618	0	-0.878412	0.0195697	4.57356	0.589625
10.77	0.394625	443.568	-53.3317	-0.239788	0	-0.435558	-0.00354262	-3.98199	0.478768	1.83302	467.229	59.8971	-0.245676	0	-0.878547	0.0182939	4.66305	0.597787
10.78	0.237587	435.318	-51.6307	-0.23967	0	-0.435732	-0.00214944	-3.93832	0.467102	1.62479	465.249	59.3519	-0.24498	0	-0.878735	0.0166118	4.75669	0.606812
10.79	0.108038	426.227	-49.807	-0.239593	0	-0.435934	-0.000985725	-3.88886	0.454434	1.35544	462.153	58.7334	-0.244074	0	-0.878981	0.0142256	4.85041	0.616421
10.8	-0.0012418	416.386	-47.8934	-0.239567	0	-0.436163	1.14344e-05	-3.83406	0.441	0.992108	457.824	58.0514	-0.242941	0	-0.879291	0.0107038	4.93942	0.626311
10.81	-0.103895	405.948	-45.9323	-0.239607	0	-0.436416	0.000966065	-3.7747	0.4271	0.494016	452.196	57.323	-0.241559	0	-0.879672	0.00548284	5.01871	0.636201
10.82	-0.217462	395.131	-43.9752	-0.239726	0	-0.43669	0.00204301	-3.71218	0.413139	-0.183016	445.276	56.5743	-0.239915	0	-0.88013	-0.00208946	5.08363	0.6458970000000001
10.83	-0.358238	384.218	-42.0816	-0.239944	0	-0.436984	0.00340205	-3.64877	0.399633	-1.07744	437.157	55.8388	-0.238003	0	-0.880671	-0.0126446	5.13037	0.655311
10.84	-0.534253	373.55	-40.3162	-0.240284	0	-0.437293	0.00513109	-3.58766	0.387207	-2.21087	428.026	55.1536	-0.235843	0	-0.881294	-0.0266346	5.15649	0.664444
10.85	-0.738838	363.503	-38.7447	-0.240779	0	-0.437614	0.00718094	-3.53297	0.376569	-3.57988	418.157	54.5527	-0.233482	0	-0.881993	-0.0441872	5.16139	0.673355
